<?xml version="1.0" encoding="utf-8"?>
<!-- Generator: Adobe Illustrator 20.1.0, SVG Export Plug-In . SVG Version: 6.00 Build 0)  -->
<svg version="1.1" id="Layer_1" xmlns="http://www.w3.org/2000/svg" xmlns:xlink="http://www.w3.org/1999/xlink" x="0px" y="0px"
	 viewBox="0 0 700 240" style="enable-background:new 0 0 700 240;" xml:space="preserve">
<style type="text/css">
	.st0{fill:#404040;}
	.st1{fill:url(#SVGID_1_);}
	.st2{fill:#FFFFFF;}
	.st3{fill:url(#SVGID_2_);}
	.st4{fill:url(#SVGID_3_);}
	.st5{fill:url(#SVGID_4_);}
</style>
<g>
	<g>
		<path class="st0" d="M49.4,98.2c0-14.1-1.7-17-1.7-19.8c0-3.4,12.2-4.5,15.7-4.5c4.5,0,4.8,5.6,5.6,9.1c3-5.3,7.2-10.7,15.3-10.7
			c6.9,0,8,4.8,8,7.6c0,2.7-1.5,11.8-4.4,11.8c-2,0-3.8-1.1-6.6-1.1c-5.8,0-9.6,4.2-11.2,7v45.1c0,3-2.5,4.5-8.4,4.5h-3.9
			c-5.9,0-8.4-1.5-8.4-4.5V98.2z"/>
		<path class="st0" d="M130,72.3c22.1,0,30.4,16.7,30.4,36.3c0,2.4-5.3,8.3-7.2,8.3h-35.9c1,11.2,7,14.8,16.2,14.8
			c8.9,0,15-4.4,17-4.4c3.1,0,7.3,7.9,7.3,10.7c0,7-17.4,10.1-25.3,10.1c-25.5,0-36.7-14.8-36.7-37.4C95.9,83,109.9,72.3,130,72.3z
			 M140.2,102.9c0-8.2-3.1-14.2-10.1-14.2c-5.9,0-11,3.4-12.7,14.2H140.2z"/>
		<path class="st0" d="M172.5,45.4c0-3,2.5-4.5,8.4-4.5h3.9c5.9,0,8.4,1.5,8.4,4.5v80.1c0,4.2,1.4,6,5.1,6c1.3,0,3-0.6,3.8-0.6
			c2.8,0,4.4,9,4.4,10.1c0,6.5-9.1,6.9-13.5,6.9c-13.2,0-20.5-7.2-20.5-22.8V45.4z"/>
		<path class="st0" d="M216.2,56.8V45.4c0-3,2.5-4.5,8.4-4.5h3.9c5.9,0,8.4,1.5,8.4,4.5v11.4c0,3-2.5,4.5-8.4,4.5h-3.9
			C218.7,61.3,216.2,59.8,216.2,56.8z M216.2,77.6c0-3,2.5-4.5,8.4-4.5h3.9c5.9,0,8.4,1.5,8.4,4.5v65.1c0,3-2.5,4.5-8.4,4.5h-3.9
			c-5.9,0-8.4-1.5-8.4-4.5V77.6z"/>
		<path class="st0" d="M285.4,72.3c22.1,0,30.4,16.7,30.4,36.3c0,2.4-5.3,8.3-7.2,8.3h-35.9c1,11.2,7,14.8,16.2,14.8
			c8.9,0,15-4.4,17-4.4c3.1,0,7.3,7.9,7.3,10.7c0,7-17.4,10.1-25.3,10.1c-25.5,0-36.7-14.8-36.7-37.4
			C251.2,83,265.3,72.3,285.4,72.3z M295.5,102.9c0-8.2-3.1-14.2-10.1-14.2c-5.9,0-11,3.4-12.7,14.2H295.5z"/>
		<path class="st0" d="M330.1,89.9h-2.5c-3,0-4.2-2.1-4.2-7v-2.4c0-4.9,1.3-7,4.2-7h2.5V62.9c0-15.6,7.3-22.8,20.5-22.8
			c4.5,0,14.1,0.4,14.1,6.9c0,1.1-1.5,10.1-4.4,10.1c-1,0-3-0.6-4.4-0.6c-3.7,0-5.1,1.8-5.1,6v10.8h42.6c3,0,4.2,2.1,4.2,7v2.4
			c0,4.9-1.3,7-4.2,7h-42.6v52.9c0,3-2.5,4.5-8.4,4.5h-3.9c-5.9,0-8.4-1.5-8.4-4.5V89.9z"/>
		<path class="st0" d="M378,78.9c-0.3-0.8-0.3-1.5-0.3-2.1c0-2.2,3.7-2.2,9.7-2.2l2-1.2c3.7-0.2,7.6,0.7,8.2,2.7l11.1,43.3
			l10.7-43.3c0.4-2,3.2-3,7.7-3h3.4c3.9,0,7.3,1,7.7,3l10.4,43.3l11.4-43.3c0.6-2,3.2-3,7.7-3h0.6c6,0,8.7,1.4,8.7,3.7
			c0,0.6-0.1,1.3-0.3,2.1l-16.6,65.4c-0.6,2-3.8,3-7.7,3h-6.9c-4.5,0-7.2-1-7.7-3l-10.1-39.5l-9.6,39.5c-0.4,2-3.8,3-7.7,3h-6.9
			c-4.6,0-7.2-1-7.7-3L378,78.9z"/>
		<path class="st0" d="M518.1,72.3c22.1,0,30.4,16.7,30.4,36.3c0,2.4-5.3,8.3-7.2,8.3h-35.9c1,11.2,7,14.8,16.2,14.8
			c8.9,0,15-4.4,17-4.4c3.1,0,7.3,7.9,7.3,10.7c0,7-17.4,10.1-25.3,10.1c-25.5,0-36.7-14.8-36.7-37.4C483.9,83,498,72.3,518.1,72.3z
			 M528.2,102.9c0-8.2-3.1-14.2-10.1-14.2c-5.9,0-11,3.4-12.7,14.2H528.2z"/>
		<path class="st0" d="M560.9,45.4c0-3,2.5-4.5,8.4-4.5h3.9c5.9,0,8.4,1.5,8.4,4.5v31.2c3-2.1,7.7-4.4,14.3-4.4
			c19,0,29.7,14.9,29.7,37.8c0,24.5-11.1,38-26.3,38c-8.7,0-15.6-4.5-18.8-10.5l-1.4,6c-0.7,3.1-3.7,3.7-8.2,3.7h-1.7
			c-5.9,0-8.4-1.5-8.4-4.5V45.4z M593.3,131.1c7.7,0,11.4-7.3,11.4-21c0-14.1-4.2-21.4-13.1-21.4c-4.4,0-7.6,1.4-9.8,2.7v31.4
			C584.3,127.1,587.9,131.1,593.3,131.1z"/>
	</g>
	<g>
		<linearGradient id="SVGID_1_" gradientUnits="userSpaceOnUse" x1="357.3388" y1="142.934" x2="663.8257" y2="142.934">
			<stop  offset="0" style="stop-color:#F65C51"/>
			<stop  offset="0.1464" style="stop-color:#D9615E"/>
			<stop  offset="0.4642" style="stop-color:#906F7F"/>
			<stop  offset="0.9262" style="stop-color:#1C84B2"/>
			<stop  offset="1" style="stop-color:#0988BB"/>
		</linearGradient>
		<path class="st1" d="M663.6,110.4c-1.8-14.1-19.3-24.9-30-26.5c3.9,3,8.2,5.6,11.7,9c6,5.7,8.7,12.8,6.6,21.1
			c-2,8-7,14.2-12.9,19.8c-13.6,12.9-30,21.4-47.2,28.4c-31,12.7-63.4,19.7-96.7,22.7c-21.9,2-43.7,1.7-65.4-2.3
			c-12.3-2.2-24.2-5.6-34.6-12.9c-10.5-7.4-13.9-16.6-10.4-27.2l-4.4-16.4c0,0-0.1-0.1-0.1-0.1c-4.6,3.5-13.6,11-19.1,21.4
			c-6.7,12.8-4.2,24.9,7.1,34.2c10.2,8.4,22.4,12.4,35.1,15.2c26.9,6,54.1,5.9,81.4,3.5c29.5-2.6,58.3-8.3,86.4-17.4
			c23.3-7.5,45.8-16.8,65.8-31.1c8.5-6,16.2-12.8,21.7-21.7C662.4,124.2,664.5,117.7,663.6,110.4z"/>
	</g>
</g>
</svg>
